<svg xmlns="http://www.w3.org/2000/svg" width="1200" height="800" viewBox="0 0 1200 800">
  <defs>
    <radialGradient id="nebula" cx="50%" cy="50%" r="70%">
      <stop offset="0%" stop-color="#1d4ed8" stop-opacity="0.28"/>
      <stop offset="45%" stop-color="#0f172a" stop-opacity="0.95"/>
      <stop offset="100%" stop-color="#020617"/>
    </radialGradient>
  </defs>
  <rect width="1200" height="800" fill="url(#nebula)"/>
  <g fill="#e2e8f0" opacity="0.95">
    <circle cx="72" cy="84" r="1.5"/>
    <circle cx="198" cy="44" r="1.1"/>
    <circle cx="314" cy="106" r="0.9"/>
    <circle cx="438" cy="52" r="1.4"/>
    <circle cx="566" cy="122" r="1.0"/>
    <circle cx="676" cy="62" r="1.3"/>
    <circle cx="812" cy="114" r="1.2"/>
    <circle cx="944" cy="78" r="1.0"/>
    <circle cx="1058" cy="142" r="1.4"/>
    <circle cx="1164" cy="98" r="1.1"/>
    <circle cx="86" cy="248" r="1.2"/>
    <circle cx="214" cy="312" r="1.0"/>
    <circle cx="328" cy="264" r="1.6"/>
    <circle cx="452" cy="338" r="1.0"/>
    <circle cx="594" cy="286" r="1.2"/>
    <circle cx="716" cy="352" r="1.1"/>
    <circle cx="846" cy="278" r="1.5"/>
    <circle cx="974" cy="332" r="1.2"/>
    <circle cx="1088" cy="264" r="1.1"/>
    <circle cx="1176" cy="348" r="1.5"/>
    <circle cx="98" cy="492" r="1.3"/>
    <circle cx="232" cy="444" r="1.1"/>
    <circle cx="366" cy="514" r="1.2"/>
    <circle cx="488" cy="462" r="1.0"/>
    <circle cx="622" cy="536" r="1.4"/>
    <circle cx="756" cy="458" r="1.2"/>
    <circle cx="882" cy="522" r="1.1"/>
    <circle cx="1018" cy="468" r="1.5"/>
    <circle cx="1124" cy="548" r="1.0"/>
    <circle cx="74" cy="676" r="1.2"/>
    <circle cx="206" cy="634" r="1.0"/>
    <circle cx="342" cy="708" r="1.4"/>
    <circle cx="474" cy="656" r="1.1"/>
    <circle cx="612" cy="722" r="1.2"/>
    <circle cx="742" cy="642" r="1.0"/>
    <circle cx="878" cy="710" r="1.5"/>
    <circle cx="1006" cy="648" r="1.2"/>
    <circle cx="1138" cy="726" r="1.1"/>
  </g>
</svg>
